<?xml version="1.0" encoding="UTF-8" standalone="no"?>
<svg
   xmlns:dc="http://purl.org/dc/elements/1.1/"
   xmlns:cc="http://creativecommons.org/ns#"
   xmlns:rdf="http://www.w3.org/1999/02/22-rdf-syntax-ns#"
   xmlns:svg="http://www.w3.org/2000/svg"
   xmlns="http://www.w3.org/2000/svg"
   id="svg10"
   xml:space="preserve"
   enable-background="new 0 0 1000 1000"
   viewBox="0 0 1000 1000"
   y="0px"
   x="0px"
   fill="#000000"
   version="1.1"><defs
   id="defs14" />
<g
   id="g8"><g
     id="g6"
     transform="translate(0.000000,511.000000) scale(0.100000,-0.100000)"><path
       id="path4"
       d="M3082.2,2574.7C2038.5,1230.9,1183.9,124.2,1183.9,115.4c0-21.7,3794.3-4905.4,3809.5-4905.4c6.5,0,811,1028.5,1789.5,2287.5c976.3,1259,1835.2,2361.4,1904.8,2452.7l128.3,165.3l-1900.4,2444C5869.8,3903.2,5006.5,5005.7,4997.8,5010C4989.1,5012.2,4128.1,3916.3,3082.2,2574.7z M6306.8,1861.5l989.4-1272l-1317.7-6.5c-724.1-2.2-1322,0-1328.5,6.5c-10.9,8.7,556.6,2594,578.4,2628.8c6.5,10.9,28.3-4.3,50-32.6C5297.9,3157.4,5761,2561.6,6306.8,1861.5z M3901.9,1474.4l-200-895.9h-506.6c-487.1,0-508.8,2.2-480.5,39.1c121.8,169.6,1374.2,1765.6,1378.6,1759.1C4097.6,2372.5,4012.8,1965.8,3901.9,1474.4z M5341.4-367.3c0-32.6-556.7-2554.9-578.4-2615.8c-6.5-23.9-2074.4,2604.9-2074.4,2637.5c0,6.5,598,10.9,1326.4,10.9C5191.4-334.7,5341.4-339,5341.4-367.3z M7298.3-345.5c0-6.5-1328.6-1728.6-1382.9-1791.7c-32.6-37-4.3,113.1,171.8,906.7l200,895.8h504.5C7070-334.7,7298.3-339,7298.3-345.5z" /></g></g>
</svg>